<svg viewBox="0 0 21 21" fill="none" xmlns="http://www.w3.org/2000/svg">
  <g clip-path="url(#a)" fill="#000">
    <path d="M10.5 0a8.76 8.76 0 0 0-8.75 8.75c0 4.622 7.35 10.966 8.185 11.675l.565.478.565-.478c.835-.709 8.185-7.053 8.185-11.675A8.76 8.76 0 0 0 10.5 0Zm0 13.125a4.375 4.375 0 1 1 0-8.75 4.375 4.375 0 0 1 0 8.75Z"/>
    <path d="M10.5 11.375a2.625 2.625 0 1 0 0-5.25 2.625 2.625 0 0 0 0 5.25Z"/>
  </g>
  <defs>
    <clipPath id="a">
      <path fill="#fff" d="M0 0h21v21H0z"/>
    </clipPath>
  </defs>
</svg>
